<svg width="200" height="200" version="1.1" viewBox="0 0 52.917 52.917" xmlns="http://www.w3.org/2000/svg">
 <rect width="100%" height="100%" fill="white" />
 <path fill="#1a1a2e" d="m1.8952 25.366c0-0.10606 0.0537-0.1592 0.16162-0.1592h1.9548c0.15677 0 0.29759 0.01353 0.42264 0.0404 0.12546 0.02646 0.23193 0.06384 0.31921 0.11233 0.0873 0.04808 0.15434 0.10647 0.20122 0.17536 0.0473 0.06909 0.0711 0.14607 0.0711 0.23112v0.49941c0 0.08526-0.0239 0.16223-0.0711 0.23112-0.0469 0.06909-0.11395 0.12768-0.20122 0.17617-0.0873 0.04849-0.19375 0.08606-0.31921 0.11233-0.12505 0.02646-0.26587 0.0396-0.42264 0.0396h-1.6582v0.73457c0 0.06627-0.0198 0.1099-0.059 0.13091-0.0388 0.02041-0.0962 0.03071-0.17213 0.03071-0.0733 0-0.1297-0.0103-0.1689-0.03071-0.0388-0.02101-0.0582-0.06465-0.0582-0.13091zm0.4582 0.21334v0.87276h1.617c0.11738 0 0.21455-0.0057 0.29173-0.01697 0.077-0.01172 0.13838-0.02748 0.18424-0.04687 0.0457-0.01939 0.0778-0.04222 0.0962-0.06869 0.0188-0.02687 0.0283-0.05616 0.0283-0.08808v-0.43153c0-0.0295-0.01-0.05818-0.0283-0.08566-0.0184-0.02788-0.0505-0.05172-0.0962-0.07111-0.0459-0.01939-0.10727-0.03475-0.18424-0.04606-0.0772-0.01172-0.17435-0.01778-0.29173-0.01778zm4.3139-0.21334c0-0.10606 0.0537-0.1592 0.16162-0.1592h1.9378c0.15616 0 0.29677 0.01353 0.42183 0.0404 0.12546 0.02646 0.23193 0.06384 0.3192 0.11233 0.0877 0.04808 0.15516 0.10647 0.20203 0.17536 0.0473 0.06909 0.0711 0.14607 0.0711 0.23112v0.43396c0 0.08526-0.0239 0.16223-0.0711 0.23112-0.0469 0.06909-0.11435 0.12768-0.20203 0.17617-0.0873 0.04808-0.19374 0.08546-0.3192 0.11233-0.12506 0.02647-0.26567 0.0396-0.42183 0.0396h-0.40164c-0.075 0-0.14121-3.99e-4 -0.19879-0.0016-0.0572-0.0016-0.10889-0.0034-0.15516-0.0057-0.0459-2e-3 -0.0905-0.0042-0.13414-0.0065v0.0065c0.0372 0.01414 0.0768 0.02869 0.11879 0.04364 0.0424 0.01455 0.0948 0.03354 0.15677 0.05657 0.0624 0.02263 0.13778 0.05132 0.22627 0.08566 0.0883 0.03455 0.19819 0.07839 0.32971 0.13172l0.83074 0.33456c0.0737 0.0297 0.11071 0.08142 0.11071 0.15516 0 0.06202-0.0202 0.10465-0.0606 0.12768-0.0404 0.02263-0.0986 0.03394-0.17455 0.03394-0.0162 0-0.0364-6e-4 -0.0606-0.0016-0.0239-0.0012-0.0483-0.0036-0.0735-0.0073-0.0255-0.0032-0.0501-0.0075-0.0743-0.01293-0.0243-0.0059-0.0457-0.01475-0.0638-0.02667l-2.017-0.87195v0.75882c0 0.06627-0.0198 0.1099-0.059 0.13091-0.0388 0.0204-0.0962 0.03071-0.17213 0.03071-0.0733 0-0.1297-0.01031-0.16889-0.03071-0.0388-0.02101-0.0582-0.06465-0.0582-0.13091zm0.45819 0.21334v0.81377h1.6001c0.11738 0 0.21435-0.0057 0.29092-0.01697 0.077-0.01131 0.13839-0.02667 0.18425-0.04606 0.0463-0.0198 0.0786-0.04303 0.097-0.0695 0.0182-0.02626 0.0275-0.05576 0.0275-0.08808v-0.37254c0-0.0295-9e-3 -0.05818-0.0275-0.08566-0.0184-0.02788-0.0507-0.05172-0.097-0.07111-0.0459-0.01939-0.10728-0.03475-0.18425-0.04606-0.0766-0.01172-0.17354-0.01778-0.29092-0.01778zm5.9067-0.38224c0.0663 0 0.12061 0.0103 0.16323 0.03071 0.0424 0.02061 0.0776 0.05051 0.10506 0.0897l1.5039 2.1447c0.0162 0.02546 0.0243 0.05172 0.0243 0.0792 0 0.02546-8e-3 0.0497-0.0226 0.07273-0.0152 0.02263-0.0347 0.04202-0.059 0.05818-0.0239 0.01616-0.0507 0.02889-0.0808 0.03798-0.0297 0.0091-0.0596 0.01374-0.0897 0.01374-0.0319 0-0.0604-0.0053-0.0857-0.01536-0.0255-0.0101-0.0473-0.02788-0.0655-0.05334l-0.40728-0.59315h-1.9168l-0.38305 0.59315c-0.0162 0.02546-0.0376 0.04323-0.0638 0.05334-0.0265 0.0101-0.0548 0.01536-0.0849 0.01536-0.0275 0-0.0564-0.0046-0.0865-0.01374-0.0297-0.0091-0.0566-0.02222-0.0808-0.0396-0.0239-0.01717-0.0432-0.03657-0.0582-0.05818-0.0152-0.02202-0.0226-0.04687-0.0226-0.07435 0-0.02303 8e-3 -0.04849 0.0242-0.07596l1.4142-2.1447c0.0247-0.03919 0.059-0.06909 0.10263-0.0897 0.044-0.0204 0.10061-0.03071 0.16971-0.03071zm-0.69336 1.4926h1.4239l-0.73053-1.0724zm7.0096 0.37577c0 0.22102-0.0869 0.38304-0.26022 0.48648-0.17354 0.10344-0.42809 0.15516-0.76366 0.15516h-1.0449c-0.68043 0-1.0206-0.21374-1.0206-0.64164v-1.217c0-0.42769 0.34021-0.64164 1.0206-0.64164h0.48649c0.0549 0 0.0909 0.01576 0.10828 0.04687 0.0172 0.03131 0.0259 0.07798 0.0259 0.1398 0 0.06202-9e-3 0.10869-0.0259 0.1398-0.0174 0.03071-0.0533 0.04606-0.10828 0.04606h-0.47275c-0.20203 0-0.3491 0.02586-0.44123 0.07758-0.0921 0.05172-0.13818 0.11556-0.13818 0.19152v1.217c0 0.07394 0.0461 0.13718 0.13818 0.18991 0.0921 0.05293 0.2392 0.0792 0.44123 0.0792h1.0174c0.20243 0 0.3491-0.02627 0.43961-0.0792 0.0909-0.05273 0.13658-0.11596 0.13658-0.18991v-0.61336c0-0.06667 0.0188-0.11031 0.0566-0.13091 0.0376-0.02101 0.0946-0.03152 0.17052-0.03152 0.076 0 0.13374 0.01051 0.17374 0.03152 0.0404 0.02061 0.0606 0.06424 0.0606 0.13091zm5.3758-1.731c0.0366-0.04364 0.0772-0.07455 0.12202-0.09293 0.0453-0.01818 0.0954-0.02747 0.15031-0.02747 0.17011 0 0.25537 0.07819 0.25537 0.23435v2.1108c0 0.06626-0.0198 0.1099-0.059 0.13091-0.0388 0.0204-0.0962 0.03071-0.17212 0.03071-0.076 0-0.13375-0.0103-0.17294-0.03071-0.0388-0.02101-0.0582-0.06465-0.0582-0.13091v-1.6348l-1.3762 1.6655c-0.0388 0.04586-0.079 0.07919-0.1204 0.1002-0.0416 0.02041-0.0921 0.03071-0.15193 0.03071-0.0663 0-0.12202-0.0103-0.16728-0.03071-0.0448-0.02101-0.0855-0.05434-0.12202-0.1002l-1.3794-1.6655v1.6348c0 0.06627-0.0198 0.1099-0.059 0.13091-0.0388 0.02041-0.0962 0.03071-0.17213 0.03071-0.0733 0-0.1297-0.0103-0.16889-0.03071-0.0388-0.02101-0.0582-0.06465-0.0582-0.13091v-2.1108c0-0.15617 0.0836-0.23435 0.25133-0.23435 0.11252 0 0.20324 0.0402 0.27233 0.12041l1.5863 1.9136zm3.8203-0.13738c0.0663 0 0.12061 0.0103 0.16324 0.03071 0.0424 0.02061 0.0776 0.05051 0.10505 0.0897l1.5039 2.1447c0.0162 0.02546 0.0242 0.05172 0.0242 0.0792 0 0.02546-8e-3 0.0497-0.0226 0.07273-0.0152 0.02263-0.0348 0.04202-0.059 0.05818-0.0238 0.01616-0.0507 0.02889-0.0808 0.03798-0.0297 0.0091-0.0596 0.01374-0.0897 0.01374-0.0319 0-0.0604-0.0053-0.0857-0.01536-0.0254-0.0101-0.0473-0.02788-0.0654-0.05334l-0.40729-0.59315h-1.9168l-0.38304 0.59315c-0.0162 0.02545-0.0376 0.04323-0.0638 0.05334-0.0265 0.0101-0.0548 0.01536-0.0849 0.01536-0.0275 0-0.0564-0.0046-0.0865-0.01374-0.0297-0.0091-0.0566-0.02222-0.0808-0.0396-0.0238-0.01717-0.0432-0.03657-0.0582-0.05818-0.0152-0.02202-0.0226-0.04687-0.0226-0.07435 0-0.02303 8e-3 -0.04849 0.0242-0.07596l1.4142-2.1447c0.0247-0.03919 0.059-0.06909 0.10264-0.0897 0.044-0.0204 0.1006-0.03071 0.1697-0.03071zm-0.69336 1.4926h1.4239l-0.73053-1.0724zm4.8578-1.1103v1.9799c0 0.06627-0.0198 0.1099-0.059 0.13091-0.0388 0.02041-0.096 0.03071-0.17132 0.03071-0.0739 0-0.1305-0.0103-0.1697-0.03071-0.0388-0.02101-0.0582-0.06465-0.0582-0.13091v-1.9799h-1.0376c-0.0556 0-0.0919-0.01535-0.10909-0.04606-0.0174-0.03111-0.0259-0.07778-0.0259-0.1398 0-0.06182 8e-3 -0.10849 0.0259-0.1398 0.0172-0.03111 0.0535-0.04687 0.10909-0.04687h2.5375c0.0554 0 0.0917 0.01576 0.10909 0.04687 0.0172 0.03131 0.0259 0.07798 0.0259 0.1398 0 0.06202-9e-3 0.10869-0.0259 0.1398-0.0174 0.03071-0.0537 0.04606-0.10909 0.04606zm3.2171 1.9799c0 0.06627-0.0198 0.1099-0.059 0.13091-0.0388 0.02041-0.0962 0.03071-0.17212 0.03071-0.0733 0-0.12971-0.0103-0.1689-0.03071-0.0388-0.02101-0.0582-0.06465-0.0582-0.13091v-2.2037c0-0.06667 0.0194-0.11031 0.0582-0.13091 0.0392-0.02101 0.0956-0.03152 0.1689-0.03152 0.076 0 0.13333 0.0105 0.17212 0.03152 0.0392 0.02061 0.059 0.06424 0.059 0.13091zm2.6791-0.93498c-0.68043 0-1.0206-0.21354-1.0206-0.64083v-0.13495c0-0.42769 0.34021-0.64164 1.0206-0.64164h0.34507c0.055 0 0.0909 0.01576 0.10828 0.04687 0.0172 0.03131 0.0259 0.07798 0.0259 0.1398 0 0.06202-9e-3 0.10869-0.0259 0.1398-0.0174 0.03071-0.0533 0.04606-0.10828 0.04606h-0.35557c-0.20203 0-0.34507 0.02586-0.42911 0.07758-0.084 0.05172-0.12607 0.11556-0.12607 0.19152v0.13495c0 0.07334 0.042 0.13637 0.12607 0.1891 0.084 0.05293 0.22708 0.07919 0.42911 0.07919h0.81377c0.68042 0 1.0206 0.21395 1.0206 0.64164v0.17213c0 0.4279-0.34022 0.64164-1.0206 0.64164h-1.6898c-0.055 0-0.0911-0.01535-0.10828-0.04606-0.0174-0.03111-0.0259-0.07778-0.0259-0.1398 0-0.06243 9e-3 -0.1091 0.0259-0.1398 0.0172-0.03111 0.0533-0.04687 0.10828-0.04687h1.7003c0.20243 0 0.34547-0.02586 0.42911-0.07758 0.084-0.05172 0.12606-0.11556 0.12606-0.19152v-0.17213c0-0.07374-0.042-0.13698-0.12606-0.18991-0.0836-0.05273-0.22668-0.0792-0.42911-0.0792zm7.1722-1.2897c0.0366-0.04364 0.0772-0.07455 0.12202-0.09293 0.0453-0.01818 0.0954-0.02747 0.15031-0.02747 0.17011 0 0.25536 0.07819 0.25536 0.23435v2.1108c0 0.06626-0.0198 0.1099-0.059 0.13091-0.0388 0.0204-0.0962 0.03071-0.17213 0.03071-0.076 0-0.13374-0.0103-0.17293-0.03071-0.0388-0.02101-0.0582-0.06465-0.0582-0.13091v-1.6348l-1.3762 1.6655c-0.0388 0.04586-0.079 0.07919-0.1204 0.1002-0.0416 0.02041-0.0921 0.03071-0.15193 0.03071-0.0663 0-0.12203-0.0103-0.16728-0.03071-0.0448-0.02101-0.0855-0.05434-0.12203-0.1002l-1.3794-1.6655v1.6348c0 0.06627-0.0198 0.1099-0.059 0.13091-0.0388 0.02041-0.0962 0.03071-0.17213 0.03071-0.0733 0-0.1297-0.0103-0.1689-0.03071-0.0388-0.02101-0.0582-0.06465-0.0582-0.13091v-2.1108c0-0.15617 0.0836-0.23435 0.25132-0.23435 0.11253 0 0.20324 0.0402 0.27234 0.12041l1.5863 1.9136zm3.2199 2.3726c-0.68043 0-1.0206-0.21374-1.0206-0.64164v-1.217c0-0.42769 0.34021-0.64164 1.0206-0.64164h1.0037c0.68043 0 1.0206 0.21395 1.0206 0.64164v1.217c0 0.4279-0.34021 0.64164-1.0206 0.64164zm0.98994-0.37254c0.20203 0 0.3491-0.02627 0.44123-0.0792 0.0921-0.05273 0.13818-0.11596 0.13818-0.18991v-1.217c0-0.07596-0.0461-0.1398-0.13818-0.19152-0.0921-0.05172-0.2392-0.07758-0.44123-0.07758h-0.9762c-0.20202 0-0.3491 0.02586-0.44123 0.07758-0.0921 0.05172-0.13818 0.11556-0.13818 0.19152v1.217c0 0.07394 0.0461 0.13718 0.13818 0.18991 0.0921 0.05293 0.23921 0.0792 0.44123 0.0792z" />
</svg>