<svg xmlns="http://www.w3.org/2000/svg" width="800" height="400" viewBox="0 0 800 400" fill="none">
  <defs>
    <linearGradient id="pg" x1="0" y1="0" x2="1" y2="1">
      <stop offset="0%" stop-color="#888888"/>
      <stop offset="100%" stop-color="#777777"/>
    </linearGradient>
    <linearGradient id="pg2" x1="0" y1="0" x2="1" y2="1">
      <stop offset="0%" stop-color="#777777"/>
      <stop offset="100%" stop-color="#6366f1"/>
    </linearGradient>
  </defs>
  <rect width="800" height="400" rx="20" fill="#f8f8f8"/>
  <rect x="40" y="30" width="160" height="100" rx="12" fill="rgba(136,136,136,.06)" stroke="rgba(136,136,136,.2)" stroke-width="1.5"/>
  <rect x="40" y="30" width="160" height="100" rx="12" fill="none" stroke="url(#pg)" stroke-width="1.5"/>
  <text x="120" y="65" text-anchor="middle" fill="#888888" font-family="system-ui,sans-serif" font-size="11" font-weight="700">DOCUMENTS</text>
  <text x="120" y="82" text-anchor="middle" fill="#666" font-family="system-ui,sans-serif" font-size="9">PDF, Word, Excel,</text>
  <text x="120" y="96" text-anchor="middle" fill="#666" font-family="system-ui,sans-serif" font-size="9">Plain Text</text>
  <path d="M200 80 L260 80" stroke="url(#pg)" stroke-width="2" stroke-dasharray="6 4"/>
  <polygon points="255,75 265,80 255,85" fill="#888888"/>
  <rect x="270" y="35" width="160" height="90" rx="12" fill="rgba(168,85,247,.06)" stroke="rgba(168,85,247,.2)" stroke-width="1.5"/>
  <rect x="270" y="35" width="160" height="90" rx="12" fill="none" stroke="url(#pg2)" stroke-width="1.5"/>
  <text x="350" y="65" text-anchor="middle" fill="#777777" font-family="system-ui,sans-serif" font-size="11" font-weight="700">VECTOR INDEX</text>
  <text x="350" y="82" text-anchor="middle" fill="#666" font-family="system-ui,sans-serif" font-size="9">Chunking +</text>
  <text x="350" y="96" text-anchor="middle" fill="#666" font-family="system-ui,sans-serif" font-size="9">Embeddings</text>
  <path d="M430 80 L490 80" stroke="url(#pg)" stroke-width="2" stroke-dasharray="6 4"/>
  <polygon points="485,75 495,80 485,85" fill="#888888"/>
  <rect x="500" y="30" width="160" height="100" rx="12" fill="rgba(136,136,136,.06)" stroke="rgba(136,136,136,.2)" stroke-width="1.5"/>
  <rect x="500" y="30" width="160" height="100" rx="12" fill="none" stroke="url(#pg)" stroke-width="1.5"/>
  <text x="580" y="65" text-anchor="middle" fill="#888888" font-family="system-ui,sans-serif" font-size="11" font-weight="700">AI SEARCH</text>
  <text x="580" y="82" text-anchor="middle" fill="#666" font-family="system-ui,sans-serif" font-size="9">RAG-powered</text>
  <text x="580" y="96" text-anchor="middle" fill="#666" font-family="system-ui,sans-serif" font-size="9">Semantic Search</text>
  <path d="M660 80 L710 80" stroke="url(#pg)" stroke-width="2" stroke-dasharray="6 4"/>
  <polygon points="705,75 715,80 705,85" fill="#888888"/>
  <rect x="720" y="25" width="50" height="50" rx="25" fill="rgba(136,136,136,.08)" stroke="url(#pg)" stroke-width="1"/>
  <text x="745" y="55" text-anchor="middle" fill="#888888" font-family="system-ui,sans-serif" font-size="18" font-weight="bold">AI</text>

  <rect x="120" y="170" width="200" height="50" rx="8" fill="rgba(136,136,136,.04)" stroke="rgba(136,136,136,.12)" stroke-width="1"/>
  <text x="220" y="200" text-anchor="middle" fill="#666" font-family="system-ui,sans-serif" font-size="11">User Query → Vector Search → Context</text>

  <rect x="380" y="170" width="200" height="50" rx="8" fill="rgba(168,85,247,.04)" stroke="rgba(168,85,247,.12)" stroke-width="1"/>
  <text x="480" y="200" text-anchor="middle" fill="#666" font-family="system-ui,sans-serif" font-size="11">LLM + Context → Answer Generation</text>

  <rect x="640" y="170" width="120" height="50" rx="8" fill="rgba(136,136,136,.04)" stroke="rgba(136,136,136,.12)" stroke-width="1"/>
  <text x="700" y="200" text-anchor="middle" fill="#666" font-family="system-ui,sans-serif" font-size="11">Cited Answer</text>

  <path d="M320 195 L375 195" stroke="url(#pg)" stroke-width="1.5"/>
  <polygon points="370,191 380,195 370,199" fill="#888888"/>
  <path d="M580 195 L635 195" stroke="url(#pg)" stroke-width="1.5"/>
  <polygon points="630,191 640,195 630,199" fill="#888888"/>

  <text x="400" y="280" text-anchor="middle" fill="#999" font-family="system-ui,sans-serif" font-size="10">Multi-Agent AI Document Processing Pipeline</text>
  <path d="M250 290 Q400 310 550 290" stroke="url(#pg)" stroke-width="1" opacity=".3" fill="none"/>
</svg>