<svg xmlns="http://www.w3.org/2000/svg" width="800" height="450" viewBox="0 0 800 450" fill="none">
  <defs>
    <linearGradient id="pg" x1="0" y1="0" x2="1" y2="1">
      <stop offset="0%" stop-color="#ff0080"/>
      <stop offset="100%" stop-color="#a855f7"/>
    </linearGradient>
    <linearGradient id="pg2" x1="0" y1="0" x2="1" y2="1">
      <stop offset="0%" stop-color="#a855f7"/>
      <stop offset="100%" stop-color="#6366f1"/>
    </linearGradient>
  </defs>
  <rect width="800" height="450" rx="20" fill="#f8f8f8"/>
  
  <text x="400" y="40" text-anchor="middle" fill="#ff0080" font-family="system-ui,sans-serif" font-size="16" font-weight="700">Word + AI Bot — Create APIs from Documents</text>
  <text x="400" y="58" text-anchor="middle" fill="#999" font-family="system-ui,sans-serif" font-size="10">Write in Word. Deploy as API. Power your AI agents.</text>

  <!-- Word Document -->
  <rect x="60" y="90" width="180" height="230" rx="8" fill="#fff" stroke="rgba(0,0,0,.08)" stroke-width="1" filter="url(#shadow)"/>
  <rect x="60" y="90" width="180" height="30" rx="8" fill="rgba(255,0,128,.06)"/>
  <rect x="60" y="112" width="180" height="8" fill="rgba(255,0,128,.06)"/>
  <text x="100" y="110" fill="#ff0080" font-family="system-ui,sans-serif" font-size="9" font-weight="600">PROMPT.md</text>
  <text x="80" y="140" fill="#333" font-family="system-ui,sans-serif" font-size="9"># Bot Personality</text>
  <text x="80" y="155" fill="#999" font-family="system-ui,sans-serif" font-size="8">You are a helpful</text>
  <text x="80" y="168" fill="#999" font-family="system-ui,sans-serif" font-size="8">assistant that helps</text>
  <text x="80" y="181" fill="#999" font-family="system-ui,sans-serif" font-size="8">with customer support.</text>
  <text x="80" y="200" fill="#333" font-family="system-ui,sans-serif" font-size="9">## Knowledge</text>
  <text x="80" y="215" fill="#999" font-family="system-ui,sans-serif" font-size="8">- FAQ: /kb/faq.docx</text>
  <text x="80" y="228" fill="#999" font-family="system-ui,sans-serif" font-size="8">- Products: /kb/products.xlsx</text>
  <text x="80" y="247" fill="#333" font-family="system-ui,sans-serif" font-size="9">## Actions</text>
  <text x="80" y="262" fill="#999" font-family="system-ui,sans-serif" font-size="8">CALL LLM "check_order"</text>
  <text x="80" y="275" fill="#999" font-family="system-ui,sans-serif" font-size="8">CALL API "/orders/{id}"</text>

  <path d="M240 205 L300 205" stroke="url(#pg)" stroke-width="2"/>
  <polygon points="295,200 305,205 295,210" fill="#ff0080"/>

  <!-- Bot Engine -->
  <rect x="310" y="130" width="180" height="190" rx="12" fill="rgba(255,0,128,.06)" stroke="url(#pg)" stroke-width="1.5"/>
  <circle cx="400" cy="165" r="15" fill="rgba(255,0,128,.1)"/>
  <text x="400" y="170" text-anchor="middle" fill="#ff0080" font-family="system-ui,sans-serif" font-size="14" font-weight="bold">AI</text>
  <text x="400" y="200" text-anchor="middle" fill="#ff0080" font-family="system-ui,sans-serif" font-size="10" font-weight="600">Bot Engine</text>
  <text x="400" y="218" text-anchor="middle" fill="#999" font-family="system-ui,sans-serif" font-size="8">LLM Orchestration</text>
  <text x="400" y="232" text-anchor="middle" fill="#999" font-family="system-ui,sans-serif" font-size="8">Vector Retrieval</text>
  <text x="400" y="246" text-anchor="middle" fill="#999" font-family="system-ui,sans-serif" font-size="8">Tool Execution</text>
  <rect x="340" y="265" width="120" height="24" rx="6" fill="rgba(255,0,128,.08)"/>
  <text x="400" y="281" text-anchor="middle" fill="#ff0080" font-family="system-ui,sans-serif" font-size="9" font-weight="600">PROMPT.md Loaded</text>

  <path d="M490 205 L550 205" stroke="url(#pg)" stroke-width="2"/>
  <polygon points="545,200 555,205 545,210" fill="#ff0080"/>

  <!-- API Output -->
  <rect x="560" y="130" width="180" height="190" rx="12" fill="rgba(99,102,241,.06)" stroke="url(#pg2)" stroke-width="1.5"/>
  <text x="650" y="160" text-anchor="middle" fill="#6366f1" font-family="system-ui,sans-serif" font-size="10" font-weight="600">REST API</text>
  <rect x="580" y="175" width="140" height="22" rx="4" fill="rgba(99,102,241,.08)"/>
  <text x="650" y="190" text-anchor="middle" fill="#6366f1" font-family="system-ui,sans-serif" font-size="7">GET /api/chat</text>
  <rect x="580" y="202" width="140" height="22" rx="4" fill="rgba(99,102,241,.08)"/>
  <text x="650" y="217" text-anchor="middle" fill="#6366f1" font-family="system-ui,sans-serif" font-size="7">POST /api/orders</text>
  <rect x="580" y="229" width="140" height="22" rx="4" fill="rgba(99,102,241,.08)"/>
  <text x="650" y="244" text-anchor="middle" fill="#6366f1" font-family="system-ui,sans-serif" font-size="7">POST /api/knowledge</text>
  <rect x="580" y="256" width="140" height="22" rx="4" fill="rgba(99,102,241,.08)"/>
  <text x="650" y="271" text-anchor="middle" fill="#6366f1" font-family="system-ui,sans-serif" font-size="7">GET /api/search</text>
  <text x="650" y="300" text-anchor="middle" fill="#bbb" font-family="system-ui,sans-serif" font-size="7">JSON · Streaming · WebSocket</text>

  <text x="400" y="385" text-anchor="middle" fill="#bbb" font-family="system-ui,sans-serif" font-size="9">Word Document → Bot Engine → REST API → AI Agents</text>
  <path d="M200 395 Q400 420 600 395" stroke="url(#pg)" stroke-width="1" opacity=".3" fill="none"/>
</svg>