<?xml version="1.0" encoding="UTF-8"?>
<svg id="Camada_1" xmlns="http://www.w3.org/2000/svg" version="1.1" xmlns:xlink="http://www.w3.org/1999/xlink" viewBox="0 0 1782.9 1216.4">
  <!-- Generator: Adobe Illustrator 29.8.7, SVG Export Plug-In . SVG Version: 2.1.1 Build 1)  -->
  <defs>
    <style>
      .st0 {
        fill: #fff;
      }

      .st1 {
        fill: none;
      }

      .st2 {
        fill: #b2b2b2;
      }

      .st3 {
        clip-path: url(#clippath-1);
      }

      .st4 {
        fill: #090d10;
      }

      .st5 {
        fill: #939393;
      }

      .st6 {
        fill: #ccc;
      }

      .st7 {
        clip-path: url(#clippath);
      }

      .st8 {
        fill: #e8e8e8;
      }

      .st9 {
        fill: #afafaf;
      }
    </style>
    <clipPath id="clippath">
      <path class="st1" d="M687.9,636c11,4.8,23.5-2.7,24.4-14.6,3.7-50.2-24.1-99.5-72.9-120.8-48.8-21.3-103.9-8.2-138.2,28.6-8.2,8.8-5.2,23,5.8,27.8l180.9,79Z"/>
    </clipPath>
    <clipPath id="clippath-1">
      <path class="st1" d="M1239.8,636c11,4.8,23.5-2.7,24.4-14.6,3.7-50.2-24.1-99.5-72.9-120.8-48.8-21.3-103.9-8.2-138.2,28.6-8.2,8.8-5.2,23,5.8,27.8l180.9,79Z"/>
    </clipPath>
  </defs>
  <g>
    <path d="M574.9,1153.8v-116.2h92c25.6,0,42.3,7.8,42.3,29.5s-5,19.6-13.1,24.7c12.8,4.6,21.4,13.6,21.4,29.7s-12,32.2-41.8,32.2h-100.8ZM599.8,1060.8v21.6h67.1c13.9,0,19.1-3,19.1-10.8s-5.1-10.8-19.1-10.8h-67.1ZM599.8,1105.7v24.9h75.9c13.3,0,18.6-4,18.6-12.6s-5.3-12.3-18.6-12.3h-75.9Z"/>
    <path d="M808.8,1035.1c51.3,0,78,26.1,78,60.6s-26.7,60.6-78,60.6-78-26.1-78-60.6,26.7-60.6,78-60.6ZM808.8,1133.1c36,0,52.6-15.4,52.6-37.4s-16.6-37.3-52.6-37.3-52.6,15.4-52.6,37.3,16.6,37.4,52.6,37.4Z"/>
    <path d="M973.1,1060.8v93h-24.9v-93h-54.8v-23.2h134.5v23.2h-54.8Z"/>
    <path d="M1034.5,1145.3l6.8-22.2c22.4,6.6,42.3,10.1,66.9,10.1s39.2-.3,39.2-14.1-11.3-9-38.8-10.5c-33.4-1.8-69.7-3.8-69.7-35.7s36.2-37.8,65.4-37.8,38.8,2.3,59.4,6.8l-5.1,22.7c-17.6-3.8-35.7-6.3-58.4-6.3s-35.9.2-35.9,13.3,22.2,12.3,45.5,13.1c32.5,1.3,63.1,4.8,63.1,33.2s-40.2,38.3-69.1,38.3-45.8-3.2-69.2-11Z"/>
  </g>
  <g>
    <path d="M416.8,134.1v-23.4h79.7v15.2c0,43.1-36.1,57.4-79.7,57.4s-79.3-26.2-79.3-61,25.4-61,86.2-61,51.9,7.2,59.4,9.4l-5.7,22.2c-16.9-4.8-34.2-8.2-53.8-8.2-44.1,0-60.6,15.5-60.6,37.6s17.9,37.6,53.8,37.6,54.6-11.9,54.6-25.5v-.3h-54.6Z"/>
    <path d="M514.8,180.9V64h126.7v23.4h-101.7v21.7h91.7v23.4h-91.7v25h105v23.4h-130.1Z"/>
    <path d="M776,64h25v116.9h-25l-89.8-85.3.5,18.5v66.8h-25V64h25l89.8,85.5-.5-18.7V64Z"/>
    <path d="M821.1,180.9V64h126.7v23.4h-101.7v21.7h91.7v23.4h-91.7v25h105v23.4h-130.1Z"/>
    <path d="M967.9,64h92.7c25,0,45.1,9.5,45.1,37.6s-20.2,36.7-44.8,36.7h-1.5l51.3,42.6h-38.7l-47.8-41.7h-31.2v41.7h-25V64ZM1061.4,115.8c11,0,18.7-3.7,18.7-14.2s-7.7-14.2-18.7-14.2h-68.5v28.4h68.5Z"/>
    <path d="M1276.8,180.9h-28.9l-13.5-23.4h-78.2l-13.4,23.4h-28.9l67-116.9h28.9l67,116.9ZM1171.6,130.8l-2,3.3h51.4l-1.8-3.3-23.9-44.9-23.7,44.9Z"/>
    <path d="M1285.2,180.9V64h25v93.5h96.7v23.4h-121.7Z"/>
  </g>
  <g>
    <path class="st4" d="M1512.4,176c2.5-.2,5-.4,7.5-.5,8.4-.1,17.3,3.5,23.2,9.5,13.5,14,10.6,36.4,10.6,54.5v61.1c0,0-.1,223.3-.1,223.3,0,44.7,9.5,44,51.2,43.7l47.7-.3c16.6,0,33,.8,45.3,13.6,8.6,9,12.4,22,11.9,34.3-3.5,76.6-120.2,23.9-148.2,51.3-3.2,3.2-6,7.5-6.8,12-3,16.6-1,56.1-1,74.9v166.5c0,21.2,3.1,88.6-2.7,104.5-3.3,9.1-9.9,16.1-18.9,19.8-8.9,3.6-18.8,3.4-27.5-.6-7.6-3.5-16-11.5-18.6-19.6-4.3-13.1-2-155.8-2-182v-496s0-92.5,0-92.5c0-11.9-.7-36.3.5-47.1.5-4.2,1.7-8.3,3.7-12.1,5.5-10.3,13.6-15.2,24.3-18.5Z"/>
    <path d="M266.4,968v-356.5s0-269.5,0-269.5v-85c0-16.9.5-34.2-.7-51-1.5-21.2-20.9-32.4-40.8-29.9-30.3,9.2-29.1,29.8-28.9,56.3.2,20.9.3,42.3.2,63.3v187.8c0,19.2,1,48.2-1.4,66.7-2.8,21.1-38.2,18.6-53.1,18.2-22.4-.7-44.8-.7-67.1,1.8-14.5,1.6-38.5,3.8-39.9,22.9,0,.5,0,1,0,1.5v14.9c-.2,2.6-.2,5.2,0,7.8v15.6c0,19,22.9,22.8,37.5,24.3,26.9,2.8,54.4,1.7,81.4.9,6.1-.2,12.2-.2,18.2.8,18.6,3,24.5,18.1,24.1,35.5-.5,23,0,49.3,0,72.5v160s-.2,56.4-.2,56.4c0,9.5-.6,26.4,1.2,35,1.5,7.5,5.3,14.5,10.7,19.9,19.4,19.4,56.2,5.5,57.9-22,1-15.7.5-32.3.5-48.1Z"/>
  </g>
  <path d="M734.3,623.8c-4.7,0-8.5-3.8-8.5-8.4-.4-41.2-14.1-76.2-39.6-101.1-24-23.5-57.1-36.2-93.2-35.8-72.4.8-130.6,60.3-129.8,132.7,0,4.7-3.7,8.5-8.4,8.6,0,0,0,0,0,0-4.7,0-8.4-3.7-8.5-8.4-.9-81.8,64.9-149,146.6-149.9.6,0,1.2,0,1.8,0,40,0,76.6,14.4,103.4,40.7,28.8,28.2,44.2,67.3,44.7,113.1,0,4.7-3.7,8.5-8.4,8.6,0,0,0,0,0,0Z"/>
  <path d="M1284.4,623.8c-4.6,0-8.3-3.6-8.5-8.2-2.8-79.7-57.8-137.1-131.2-137.1s-1,0-1.6,0c-35.1.4-67.9,14.4-92.4,39.5-24.5,25.1-37.8,58.2-37.4,93.3,0,4.7-3.7,8.5-8.4,8.6,0,0,0,0,0,0-4.7,0-8.4-3.7-8.5-8.4-.4-39.6,14.6-77,42.3-105.3s64.8-44.1,104.4-44.6c.6,0,1.1,0,1.7,0,39.3,0,75.8,15.2,103,42.9,27.7,28.2,43.8,67.5,45.3,110.6.2,4.7-3.5,8.6-8.2,8.8-.1,0-.2,0-.3,0Z"/>
  <path d="M1421.5,579l-29-4.9c-12.5-2.1-22.6-11.4-26-23.7,0-.1,0-.3-.1-.4-3.4-12.2.5-25.3,10.1-33.5l22.5-19.3c6.3-5.4,7.8-14.6,3.6-21.8l-15.5-26.1c-4.3-7.2-13.1-10.2-20.9-7.2l-28.3,10.9c-11.4,4.4-24.2,1.7-33-6.8,0-.1-.2-.2-.3-.3-8.7-8.4-11.9-21.1-7.9-32.6l10-28.9c2.7-7.9-.6-16.5-7.9-20.6l-26.5-14.7c-7.3-4.1-16.5-2.2-21.7,4.3l-20.5,25.8c-6.6,8.3-17.5,11.9-27.7,9.3-.1,0-.2,0-.3,0-10.2-2.6-17.9-11-19.8-21.4l-5.7-32.7c-1.4-8.2-8.6-14.2-16.9-14.2h-30.3c-8.4,0-15.5,6-16.9,14.3l-6.5,38.8c-1.2,6.8-6.4,12.3-13.1,13.8-5.8,1.4-11.5,2.9-17.2,4.7-6.6,2.1-13.8,0-18.3-5.2l-25.7-30.1c-5.4-6.3-14.6-7.9-21.7-3.7l-26.1,15.4c-7.2,4.2-10.3,13.1-7.3,20.9l11.6,30.3c3.9,10.2,1.4,21.8-6.3,29.5,0,0-.2.2-.2.3-7.7,7.7-19.2,10.2-29.4,6.5l-30.6-11.3c-7.8-2.9-16.6.2-20.8,7.4l-15.3,26.2c-4.2,7.2-2.6,16.4,3.8,21.8l22.4,18.7c9.9,8.2,13.9,21.4,10.6,33.9,0,.1,0,.3,0,.4-3.2,12.4-13.2,21.8-25.8,24.2l-28.9,5.4c-8.2,1.5-14.1,8.7-14,17l.3,30.3c0,8.4,6.2,15.4,14.4,16.8l28.5,4.5c12.9,2,23.2,11.4,26.8,23.9,0,.1,0,.3.1.4,3.6,12.4-.2,25.8-9.9,34.3l-21.9,19.3c-6.2,5.5-7.6,14.7-3.3,21.8l15.8,25.9c4.4,7.1,13.2,10.1,21,7l29.4-11.8c10.6-4.2,22.6-1.9,30.8,6,0,0,.2.2.3.2,8.2,7.8,11,19.6,7.4,30.3l-10.4,30.2c-2.7,7.9.6,16.5,7.9,20.6l26.5,14.7c7.3,4,16.5,2.2,21.7-4.3l21.4-26.9c6.1-7.7,16.2-11,25.8-8.5.1,0,.2,0,.3,0,9.5,2.5,16.7,10.2,18.3,19.9l5.7,34.2c1.4,8.2,8.4,14.2,16.8,14.3l30.3.3c8.4,0,15.5-5.9,17-14.1l5.8-32.9c1.8-10.2,9.4-18.4,19.5-20.8.1,0,.2,0,.3,0,9.9-2.5,20.4,1.1,26.7,9.2l20.9,26.5c5.2,6.5,14.2,8.4,21.6,4.5l26.7-14.4c7.4-4,10.8-12.7,8.1-20.6l-10-29.5c-3.8-11.1-.6-23.3,8-31.4,0,0,.2-.2.3-.3,8.5-8,20.8-10.5,31.6-6.1l29.2,11.7c7.7,3.1,16.6.2,20.9-6.9l16-25.8c4.4-7.1,3-16.4-3.2-21.9l-20.2-17.8c-10.6-9.3-14.7-23.9-10.8-37.4,0-.2,0-.3.1-.4,3.8-13.5,15-23.8,28.8-26.2l26.7-4.7c8.2-1.4,14.2-8.5,14.2-16.9v-30.3c0-8.4-6-15.5-14.3-16.9ZM1144.6,790c-98.7,0-178.7-80-178.7-178.7s80-178.7,178.7-178.7,178.7,80,178.7,178.7-80,178.7-178.7,178.7Z"/>
  <path d="M734.6,608.7c-4.7-.2-8.7,3.4-8.9,8.1-.3,8.2-1.4,16.2-3.2,24-11.6,50.5-79.3,60.4-105.2,15.5h0c-10.3-17.8-35.9-17.8-46.2,0h0c-25.7,44.5-92.9,34.8-104.5-15.4-2.6-11.3-3.8-23.1-3.3-35.2.2-4.7-3.5-8.7-8.1-8.8-4.7-.2-8.6,3.4-8.8,8.1-2.4,57.7,28.7,109.3,76,135.7,11.8,6.6,24.7,11.7,38.3,14.9,8.9,2.1,18.2,3.4,27.7,3.8,2.1,0,4.2.1,6.3.1,11.6,0,22.9-1.3,33.8-3.9,13.3-3.1,26-8.1,37.8-14.6,43.7-24.2,74.2-70,76.5-123.6.2-4.7-3.5-8.7-8.1-8.8Z"/>
  <path d="M1284.7,608.7c-4.7-.2-8.7,3.4-8.9,8.1-.3,8.2-1.4,16.2-3.2,24-11.6,50.5-79.3,60.4-105.2,15.5h0c-10.3-17.8-35.9-17.8-46.2,0h0c-25.7,44.5-92.9,34.8-104.5-15.4-2.6-11.3-3.8-23.1-3.3-35.2.2-4.7-3.5-8.7-8.1-8.8-4.7-.2-8.6,3.4-8.8,8.1-2.4,57.7,28.7,109.3,76,135.7,11.8,6.6,24.7,11.7,38.3,14.9,8.9,2.1,18.2,3.4,27.7,3.8,2.1,0,4.2.1,6.3.1,11.6,0,22.9-1.3,33.8-3.9,13.3-3.1,26-8.1,37.8-14.6,43.7-24.2,74.2-70,76.5-123.6.2-4.7-3.5-8.7-8.1-8.8Z"/>
  <g class="st7">
    <g>
      <path class="st8" d="M534,539.7l40.3-92.2c-4.4.8-8.8,1.4-13.2,1.8l-37.5,85.8,10.4,4.5Z"/>
      <path class="st6" d="M559.1,544.8l46.6-106.8c-4.8,1.9-9.7,3.6-14.6,4.9l-42.5,97.3,10.4,4.5Z"/>
      <path class="st6" d="M579.8,559.7l54.6-125.1c-3.9-.4-7.8-1-11.7-1.7l-53.4,122.3,10.4,4.5Z"/>
      <path class="st9" d="M608.2,557l50.2-115c-1.1-.8-2.1-1.6-3.2-2.4-2.4-.6-4.9-1.3-7.3-2l-50.1,114.8,10.4,4.5Z"/>
      <path class="st9" d="M637.1,553l42.3-97c-3.4-1.9-6.6-3.8-9.9-5.8l-42.9,98.2,10.4,4.5Z"/>
      <path class="st5" d="M651.7,581.9l49.8-114.1c-.2,0-.4-.2-.6-.3-3.3-1.5-6.5-3-9.7-4.6l-50,114.4,10.4,4.5Z"/>
      <path class="st5" d="M671.2,599.6l53.7-122.8c-3.6-1.1-7.2-2.3-10.8-3.6l-53.3,121.9,10.4,4.5Z"/>
      <path class="st5" d="M699.6,596.9l42.9-98.3c-1.6-2.7-3.1-5.4-4.5-8.2-.9-1.2-1.8-2.5-2.7-3.7l-46.2,105.7,10.4,4.5Z"/>
      <path class="st2" d="M724.1,603.1l34.8-79.8c-2.9-3.1-5.6-6.3-8.2-9.5l-37,84.8,10.4,4.5Z"/>
      <path class="st2" d="M739.8,629.6l37.6-86c-3.1-2.6-6-5.4-8.8-8.2l-39.2,89.7,10.4,4.5Z"/>
    </g>
  </g>
  <g class="st3">
    <g>
      <path class="st8" d="M1086,539.7l40.3-92.2c-4.4.8-8.8,1.4-13.2,1.8l-37.5,85.8,10.4,4.5Z"/>
      <path class="st6" d="M1111,544.8l46.6-106.8c-4.8,1.9-9.7,3.6-14.6,4.9l-42.5,97.3,10.4,4.5Z"/>
      <path class="st6" d="M1131.7,559.7l54.6-125.1c-3.9-.4-7.8-1-11.7-1.7l-53.4,122.3,10.4,4.5Z"/>
      <path class="st9" d="M1160.1,557l50.2-115c-1.1-.8-2.1-1.6-3.2-2.4-2.4-.6-4.9-1.3-7.3-2l-50.1,114.8,10.4,4.5Z"/>
      <path class="st9" d="M1189,553l42.3-97c-3.4-1.9-6.6-3.8-9.9-5.8l-42.9,98.2,10.4,4.5Z"/>
      <path class="st5" d="M1203.6,581.9l49.8-114.1c-.2,0-.4-.2-.6-.3-3.3-1.5-6.5-3-9.7-4.6l-50,114.4,10.4,4.5Z"/>
      <path class="st5" d="M1223.1,599.6l53.7-122.8c-3.6-1.1-7.2-2.3-10.8-3.6l-53.3,121.9,10.4,4.5Z"/>
      <path class="st5" d="M1251.5,596.9l42.9-98.3c-1.6-2.7-3.1-5.4-4.5-8.2-.9-1.2-1.8-2.5-2.7-3.7l-46.2,105.7,10.4,4.5Z"/>
      <path class="st2" d="M1276,603.1l34.8-79.8c-2.9-3.1-5.6-6.3-8.2-9.5l-37,84.8,10.4,4.5Z"/>
      <path class="st2" d="M1291.7,629.6l37.6-86c-3.1-2.6-6-5.4-8.8-8.2l-39.2,89.7,10.4,4.5Z"/>
    </g>
  </g>
  <g>
    <path d="M545.7,898.8c-1.4,0-2.7-.2-4.1-.5l-29.5-7.1c-8.3-2-13.9-9.6-13.4-18.1l2-31.9c.7-11.1-5.2-21.7-15-26.9l-.3-.2c-4.2-2.2-8.8-3.4-13.5-3.4s-12.4,2.1-17.3,5.9l-25.2,19.2c-3.1,2.4-6.8,3.6-10.6,3.6s-8.7-1.7-12-4.7l-22.2-20.7c-6.2-5.8-7.4-15.2-2.7-22.4l15.9-24.4c6.9-10.6,7-24.4.4-35.3l-.2-.4c-6-9.8-16.8-15.9-28.2-15.9s-2.5,0-3.7.2l-28.7,3.2c-.7,0-1.3.1-2,.1-7.8,0-14.7-5.2-16.8-12.7l-8.4-29.2c-2.4-8.2,1.5-16.8,9.2-20.6l26.5-12.9c11.2-5.5,18.4-17.2,18.2-29.8v-.4c-.2-12.7-7.6-24.3-19.1-29.5l-26.5-12c-7.8-3.5-11.9-12.1-9.7-20.4l7.7-29.3c2-7.7,9-13,16.9-13s1,0,1.5,0l32.6,2.8c.8,0,1.6,0,2.3,0,9.9,0,19-5.4,23.9-14,0,0,.1-.2.2-.3,5.3-9.4,4.6-21.1-1.8-29.7l-19.2-26.1c-5.1-6.9-4.5-16.4,1.5-22.6l21.1-21.8c3.3-3.4,7.8-5.3,12.6-5.3s6.9,1,9.8,3l32.8,22.2c2.8,1.9,6,2.9,9.4,2.9s6.5-.9,9.2-2.7c5-3.2,10.1-6.3,15.3-9.1,6-3.3,9.5-9.7,8.8-16.5l-4-39.1c-.9-8.5,4.5-16.4,12.7-18.7l29.2-8.1c1.5-.4,3.1-.6,4.7-.6,6.7,0,12.9,3.9,15.8,10l14.2,30c4.4,9.2,13.7,15.1,23.9,15.1h.9c10.4-.2,19.8-6.5,23.9-16.1l12.9-30.3c2.8-6.5,9.1-10.6,16.1-10.6s2.8.2,4.1.5l29.5,7.1c8.3,2,13.9,9.6,13.4,18.1l-1.9,30.5c-.7,11.8,5.6,23.2,16.1,28.9h.1c0,.1.2.2.3.2,4.6,2.5,9.8,3.8,15,3.8,6.6,0,12.9-2.1,18.2-6l24.4-18.1c3-2.3,6.6-3.5,10.4-3.5s8.9,1.7,12.1,4.9l21.9,21c6.1,5.9,7.2,15.3,2.4,22.4l-16.5,24.6c-6.9,10.3-7.2,23.8-.8,34.6,0,0,.1.2.2.3h0c5.8,9.9,16.5,16,27.7,16,1.1,0,2.2,0,3.3-.2l29.2-3c.6,0,1.2,0,1.8,0,7.8,0,14.8,5.3,16.9,12.8l8.1,29.2c2.3,8.2-1.7,16.8-9.4,20.5l-24.5,11.6c-12.4,5.9-20.5,18.7-20.6,32.6v.4c-.1,14,7.8,26.9,20.2,32.9l24.2,11.8c7.7,3.7,11.6,12.4,9.2,20.7l-8.5,29.1c-2.2,7.4-9.1,12.6-16.8,12.6h0c-.6,0-1.3,0-1.9-.1l-31.2-3.5c-1.1-.1-2.2-.2-3.3-.2-10.2,0-19.9,5.5-25.2,14.3l-.2.3c-6,9.9-5.8,22.5.7,32l17.5,25.8c4.8,7.1,3.8,16.5-2.4,22.5l-21.9,21c-3.3,3.1-7.6,4.9-12.1,4.9s-7.3-1.2-10.4-3.4l-27.2-20c-4.4-3.3-9.7-5-15.2-5s-8.8,1.1-12.6,3.3c0,0-.3.2-.3.2-8.9,5-14,14.8-13,24.9l3.1,33.3c.8,8.5-4.6,16.3-12.9,18.6l-29.3,7.8c-1.5.4-3,.6-4.5.6-6.8,0-13-4-15.9-10.1l-14.6-31.4c-4-8.5-12.7-14.1-22.2-14.1h-.7c-9.7.1-18.5,5.9-22.2,14.8l-13.5,31.6c-2.7,6.5-9.1,10.7-16.1,10.7ZM594.6,433c-16,0-32.1,2.2-47.6,6.5-45.9,12.7-84.1,42.5-107.6,84-23.5,41.4-29.4,89.5-16.7,135.4,21.3,77,91.9,130.8,171.8,130.8s32.1-2.2,47.7-6.5c45.9-12.7,84.1-42.5,107.6-84,23.5-41.4,29.4-89.5,16.7-135.5-21.3-77-91.9-130.8-171.8-130.8Z"/>
    <path class="st0" d="M643.7,324.2c1.3,0,2.7.2,4,.5l29.5,7.1c8.1,2,13.6,9.4,13.1,17.7l-1.9,30.5c-.8,12.1,5.7,23.5,16.3,29.3.1,0,.2.1.3.2,4.8,2.6,10,3.9,15.2,3.9s13-2,18.4-6.1l24.4-18.1c3-2.3,6.6-3.4,10.2-3.4,4.3,0,8.6,1.6,11.9,4.8l21.9,21c6,5.8,7,15,2.4,21.9l-16.5,24.6c-7.1,10.5-7.3,24.1-.8,35,0,.1.1.2.2.4,5.9,10,16.6,16.1,28,16.1s2.2,0,3.3-.2l29.2-3c.6,0,1.2,0,1.8,0,7.6,0,14.4,5.1,16.5,12.6l8.1,29.2c2.2,8-1.6,16.5-9.2,20l-24.5,11.6c-12.7,6-20.7,18.9-20.8,32.9,0,.2,0,.3,0,.5-.1,14.1,7.7,27,20.4,33.2l24.2,11.8c7.5,3.6,11.3,12.2,9,20.2l-8.5,29.1c-2.2,7.4-8.9,12.3-16.4,12.3s-1.3,0-1.9-.1l-31.2-3.5c-1.1-.1-2.2-.2-3.3-.2-10.4,0-20.1,5.5-25.6,14.5,0,.1-.1.2-.2.3-6.1,10-5.9,22.7.7,32.4l17.5,25.8c4.7,6.9,3.7,16.2-2.3,22l-21.9,21c-3.3,3.1-7.6,4.8-11.9,4.8s-7.1-1.1-10.1-3.3l-27.2-20c-4.6-3.4-10-5.1-15.4-5.1s-8.8,1.1-12.8,3.3c0,0-.2.1-.3.2-9,5.1-14.2,15-13.2,25.3l3.1,33.3c.8,8.3-4.5,16-12.6,18.2l-29.3,7.8c-1.5.4-3,.6-4.4.6-6.5,0-12.7-3.8-15.5-9.9l-14.6-31.4c-4.1-8.8-12.9-14.3-22.6-14.3s-.3,0-.4,0c-.1,0-.2,0-.3,0-9.8.1-18.7,6-22.6,15l-13.5,31.6c-2.7,6.4-9,10.4-15.8,10.4s-2.7-.2-4-.5l-29.5-7.1c-8.1-1.9-13.6-9.4-13.1-17.7l2-31.9c.7-11.3-5.2-21.9-15.2-27.3-.1,0-.2-.1-.3-.2-4.3-2.3-9-3.5-13.7-3.5s-12.4,2-17.6,5.9l-25.2,19.2c-3.1,2.4-6.7,3.5-10.4,3.5s-8.4-1.6-11.7-4.6l-22.2-20.7c-6.1-5.7-7.2-14.9-2.6-21.9l15.9-24.4c7.1-10.8,7.1-24.7.4-35.7,0-.1-.1-.2-.2-.4-6.1-10-16.9-16.1-28.5-16.1s-2.5,0-3.7.2l-28.7,3.2c-.6,0-1.3.1-1.9.1-7.5,0-14.3-5-16.5-12.4l-8.4-29.2c-2.3-8,1.5-16.5,9-20.1l26.5-12.9c11.5-5.6,18.6-17.4,18.4-30.2,0-.1,0-.3,0-.4-.1-12.8-7.6-24.5-19.3-29.8l-26.5-12c-7.6-3.5-11.6-11.9-9.5-20l7.7-29.3c2-7.6,8.8-12.8,16.6-12.8.5,0,1,0,1.5,0l32.6,2.8c.8,0,1.6,0,2.4,0,10,0,19.3-5.4,24.2-14.2,0-.1.1-.2.2-.3,5.4-9.5,4.7-21.3-1.8-30.1l-19.2-26.1c-5-6.7-4.3-16.1,1.5-22.1l21.1-21.8c3.3-3.4,7.8-5.2,12.3-5.2,3.3,0,6.7,1,9.6,3l32.8,22.2c2.9,2,6.2,2.9,9.6,2.9s6.6-.9,9.4-2.8c5-3.2,10.1-6.2,15.3-9.1,6.1-3.3,9.7-9.9,9-16.8l-4-39.1c-.9-8.3,4.4-16,12.5-18.3l29.2-8.1c1.5-.4,3.1-.6,4.6-.6,6.5,0,12.6,3.7,15.5,9.8l14.2,30c4.5,9.4,13.9,15.4,24.2,15.4s.3,0,.5,0c.1,0,.2,0,.4,0,10.6-.2,20.1-6.6,24.3-16.3l12.9-30.3c2.7-6.4,9-10.4,15.8-10.4M594.4,790.1c15.8,0,31.8-2.1,47.8-6.5,95.1-26.3,150.9-124.8,124.6-219.9-21.9-79.2-93.8-131.1-172.1-131.1-15.8,0-31.8,2.1-47.7,6.5-95.1,26.3-150.9,124.8-124.6,219.9,21.9,79.2,93.8,131.1,172.1,131.1M643.7,323.4c-7.2,0-13.6,4.3-16.4,10.9l-12.9,30.3c-4,9.5-13.3,15.7-23.6,15.9h-.2s-.2,0-.2,0c-.2,0-.3,0-.5,0-10,0-19.3-5.9-23.6-14.9l-14.2-30c-3-6.2-9.3-10.2-16.2-10.2-1.6,0-3.2.2-4.8.6l-29.2,8.1c-8.4,2.3-13.9,10.4-13,19.1l4,39.1c.7,6.6-2.7,12.9-8.6,16.1-5.2,2.8-10.4,5.9-15.4,9.1-2.7,1.8-5.8,2.7-9,2.7s-6.4-1-9.2-2.8l-32.8-22.2c-3-2-6.4-3.1-10-3.1-4.9,0-9.5,1.9-12.9,5.4l-21.1,21.8c-6.1,6.3-6.7,16-1.5,23l19.2,26.1c6.3,8.6,7,20.1,1.8,29.3,0,.1-.1.2-.2.4-4.8,8.5-13.8,13.7-23.6,13.7s-1.5,0-2.3,0l-32.6-2.8c-.5,0-1,0-1.5,0-8.1,0-15.2,5.5-17.3,13.3l-7.7,29.3c-2.2,8.5,1.9,17.2,9.9,20.9l26.5,12c11.3,5.1,18.7,16.5,18.8,29.1v.2c0,0,0,.2,0,.2.2,12.5-6.9,24.1-18,29.5l-26.5,12.9c-7.8,3.8-11.8,12.6-9.4,21l8.4,29.2c2.2,7.6,9.2,12.9,17.2,12.9s1.3,0,2-.1l28.7-3.2c1.2-.1,2.4-.2,3.6-.2,11.3,0,21.9,6,27.9,15.7v.2c.1,0,.2.2.2.2,6.6,10.8,6.5,24.5-.4,34.9l-15.9,24.4c-4.8,7.3-3.6,16.9,2.8,22.8l22.2,20.7c3.3,3.1,7.7,4.8,12.2,4.8s7.7-1.3,10.8-3.7l25.2-19.2c4.9-3.7,11-5.8,17.1-5.8s9.3,1.2,13.4,3.4h.2c0,.1.1.2.2.2,9.6,5.2,15.4,15.6,14.8,26.5l-2,31.9c-.5,8.7,5.2,16.5,13.7,18.5l29.5,7.1c1.4.3,2.8.5,4.2.5,7.2,0,13.6-4.3,16.4-10.9l13.5-31.6c3.7-8.7,12.3-14.4,21.9-14.6h.1s.2,0,.2,0c.2,0,.3,0,.4,0,9.4,0,18,5.4,21.9,13.8l14.6,31.4c2.9,6.3,9.3,10.4,16.2,10.4s3.1-.2,4.6-.6l29.3-7.8c8.5-2.3,14-10.2,13.2-19l-3.1-33.3c-.9-10,4.1-19.6,12.9-24.5h.1c0-.1.1-.1.2-.2,3.8-2.1,8-3.2,12.4-3.2s10.6,1.7,15,4.9l27.2,20c3.1,2.3,6.8,3.5,10.6,3.5s9-1.8,12.4-5l21.9-21c6.3-6.1,7.3-15.7,2.4-23l-17.5-25.8c-6.4-9.4-6.6-21.8-.7-31.6,0,0,0,0,.1-.2h0c5.3-8.9,14.9-14.3,24.9-14.3s2.2,0,3.2.2l31.2,3.5c.7,0,1.3.1,2,.1,7.9,0,14.9-5.3,17.2-12.9l8.5-29.1c2.5-8.4-1.5-17.3-9.3-21.1l-24.2-11.8c-12.3-5.9-20.1-18.7-20-32.5v-.2s0-.2,0-.2c0-13.7,8.1-26.4,20.4-32.3l24.5-11.6c7.9-3.7,11.9-12.5,9.6-20.9l-8.1-29.2c-2.1-7.7-9.2-13.1-17.2-13.1s-1.2,0-1.8,0l-29.2,3c-1.1.1-2.2.2-3.2.2-11.1,0-21.6-6-27.4-15.7h0c0-.2,0-.3-.1-.3-6.4-10.7-6.1-24.1.7-34.2l16.5-24.6c4.9-7.2,3.8-16.8-2.5-22.9l-21.9-21c-3.3-3.2-7.7-5-12.4-5-3.9,0-7.5,1.2-10.6,3.5l-24.4,18.1c-5.2,3.9-11.5,5.9-18,5.9s-10.2-1.3-14.8-3.8c0,0-.2-.1-.3-.1h0c-10.4-5.7-16.7-17-15.9-28.7l1.9-30.5c.5-8.7-5.2-16.5-13.7-18.5l-29.5-7.1c-1.4-.3-2.8-.5-4.2-.5h0ZM594.4,789.3c-79.6,0-150.1-53.7-171.4-130.5-12.7-45.8-6.8-93.8,16.7-135.2,23.4-41.4,61.6-71.1,107.4-83.8,15.6-4.3,31.6-6.5,47.5-6.5,79.7,0,150.1,53.7,171.4,130.5,26.2,94.6-29.5,192.8-124,219-15.6,4.3-31.6,6.5-47.6,6.5h0Z"/>
  </g>
</svg>